<svg width="18" height="18" viewBox="0 0 18 18" fill="none" xmlns="http://www.w3.org/2000/svg">
<g id="password">
<path id="Vector" d="M1.5 12H16.5V13.5H1.5V12ZM2.3625 8.9625L3 7.8525L3.6375 8.9625L4.6125 8.4L3.975 7.29H5.25V6.165H3.975L4.6125 5.0625L3.6375 4.5L3 5.6025L2.3625 4.5L1.3875 5.0625L2.025 6.165H0.75V7.29H2.025L1.3875 8.4L2.3625 8.9625ZM7.3875 8.4L8.3625 8.9625L9 7.8525L9.6375 8.9625L10.6125 8.4L9.975 7.29H11.25V6.165H9.975L10.6125 5.0625L9.6375 4.5L9 5.6025L8.3625 4.5L7.3875 5.0625L8.025 6.165H6.75V7.29H8.025L7.3875 8.4ZM17.25 6.165H15.975L16.6125 5.0625L15.6375 4.5L15 5.6025L14.3625 4.5L13.3875 5.0625L14.025 6.165H12.75V7.29H14.025L13.3875 8.4L14.3625 8.9625L15 7.8525L15.6375 8.9625L16.6125 8.4L15.975 7.29H17.25V6.165Z" fill="#D0D0D0"/>
</g>
</svg>
